<?xml version="1.0" encoding="UTF-8"?>
<svg id="Layer_2" data-name="Layer 2" xmlns="http://www.w3.org/2000/svg" viewBox="0 0 45.63 45.63">
  <defs>
    <style>
      .cls-1 {
        fill: #f9bd1a;
      }

      .cls-2 {
        fill: #ea4737;
      }

      .cls-3 {
        fill: #2f9f49;
      }

      .cls-4 {
        fill: #3372b9;
      }
    </style>
  </defs>
  <g id="Layer_2-2" data-name="Layer 2">
    <path class="cls-3" d="M45.63,3.69v15.44c0,2.03-1.66,3.68-3.69,3.68h-10.59c0-4.71-3.82-8.54-8.53-8.54V3.69c0-2.03,1.65-3.69,3.68-3.69h15.44c2.03,0,3.69,1.66,3.69,3.69Z"/>
    <path class="cls-1" d="M45.63,26.5v15.44c0,2.03-1.66,3.69-3.69,3.69h-15.44c-2.03,0-3.68-1.66-3.68-3.69v-10.59c4.71,0,8.53-3.82,8.53-8.54h10.59c2.03,0,3.69,1.66,3.69,3.69Z"/>
    <path class="cls-4" d="M22.82,14.27c-4.72,0-8.54,3.83-8.54,8.54H3.69c-2.03,0-3.69-1.65-3.69-3.68V3.69C0,1.66,1.66,0,3.69,0h15.44c2.03,0,3.68,1.66,3.68,3.69V14.27Z"/>
    <path class="cls-2" d="M22.82,41.94c0,2.03-1.66,3.69-3.69,3.69H3.69c-2.03,0-3.69-1.66-3.69-3.69v-15.44c0-2.03,1.66-3.69,3.69-3.69H14.28c0,4.72,3.81,8.53,8.53,8.54v10.59Z"/>
  </g>
</svg>